# xmcd
#
# Track frame offsets:
#	182
#	16942
#	28060
#	44697
#	58665
#	74017
#	92082
#	106892
#	119620
#	132077
#	147630
#
# Disc length: 2184 seconds
#
# Revision: 4
# Processed by: cddbd v1.5.2PL0 Copyright (c) Steve Scherf et al.
# Submitted via: EasyCDDAExtractor 5.0.7
#
DISCID=a608860b
DTITLE=David Wilcox - The Best of David Wilcox
DYEAR=1985
DGENRE=Blues
TTITLE0=Blood Money
TTITLE1=Downtown Came Uptown
TTITLE2=Bad Apple
TTITLE3=Hot Hot Papa
TTITLE4=The Grind
TTITLE5=That Hypnotizin' Boogie
TTITLE6=When You Mistreat Her
TTITLE7=Bad Reputation
TTITLE8=My Eyes Keep Me In Trouble
TTITLE9=Do The Bearcat
TTITLE10=Riverboat Fantasy
EXTD=
EXTT0=Recorded in England
EXTT1=
EXTT2=
EXTT3=
EXTT4=
EXTT5=
EXTT6=
EXTT7=
EXTT8=
EXTT9=
EXTT10=
PLAYORDER=
